<svg xmlns="http://www.w3.org/2000/svg" viewBox="0 0 97.668 118.851" width="293.005" height="356.552" filter="invert(93%) hue-rotate(180deg)"><path fill="#fff" d="M0 0h97.668v118.851H0z"/><path fill="#1e1e1e" d="M10 33.417l2.02.04q2.03.04 5.8.1 3.76.05 8.26.09l7.86.07q3.36.03 7.98.06l6.88.03q2.26.02 3.69.46 1.42.43 2.22 2.05.81 1.63.06 4.9-.75 3.27-1.72 5.47-.96 2.19-1.93 5.04-.96 2.84-1.97 5.81-1.01 2.98-1.74 5.11-.73 2.13-1.25 3.69-.53 1.56.54 1.71 1.07.15 3.98.21 2.91.05 4.3.03 1.39-.03 4 .1 2.62.12 5.03.05 2.42-.08 2.76-.02.35.05.65.22.31.16.55.41.24.26.39.57.15.32.18.67.04.35-.03.69-.08.34-.26.64t-.45.52q-.26.23-.59.36-.32.13-.67.15-.35.01-.69-.08-.33-.09-.62-.29-.29-.2-.5-.47-.21-.28-.32-.61-.11-.33-.11-.68 0-.35.11-.68.11-.33.32-.61.21-.28.5-.48.29-.19.63-.28.33-.1.68-.08.35.02.68.15.32.13.59.36.26.22.44.52.18.3.26.64.07.34.03.69-.03.35-.18.66-.15.32-.39.57-.24.26-.55.42-.31.16-.65.22l-.35.06-2.41-.08q-2.41-.08-5.04.04-2.62.12-4.01.08-1.4-.03-3.32.03-1.93.06-3.04-.03-1.1-.09-2.44-.25-1.33-.16-2.38-.74-1.05-.58-1.44-1.67-.4-1.09-.03-2.21.37-1.12 1.03-2.54.65-1.42 1.34-3.56.69-2.15 1.65-5.13.96-2.99 1.9-5.98.94-2.98 1.73-4.97.79-1.98 1.43-4.44.65-2.46.14-3.54-.5-1.08-2.75-1.06l-6.86.03q-4.62.03-7.98.06l-7.86.07q-4.5.04-8.26.09-3.77.06-5.8.1-2.02.04-2.23.02-.22-.03-.42-.11-.21-.07-.38-.2-.18-.12-.33-.28-.14-.17-.24-.36-.11-.19-.16-.41-.05-.21-.05-.42t.05-.42q.05-.22.16-.41.1-.19.24-.36.15-.16.33-.28.17-.13.38-.2.2-.08.42-.11l.21-.02z"/><path fill="#1e1e1e" d="M45.685 10.77l-1.47 2.59q-1.48 2.59-3.85 7.42-2.36 4.83-3.92 9.42-1.57 4.6-4.3 11.82-2.72 7.23-4.45 12.3t-3.92 11.86q-2.19 6.79-3.99 12.86-1.8 6.07-2.57 8.65-.76 2.58-.86 2.78-.09.19-.24.35-.16.15-.35.25-.19.1-.4.13-.22.03-.43-.01t-.4-.14q-.19-.11-.34-.27-.14-.15-.23-.35-.09-.2-.11-.42-.02-.21.03-.42t.17-.39q.11-.19.28-.32.17-.14.37-.22.2-.07.42-.08.21-.01.42.05.21.06.38.19.18.12.31.29.12.18.19.38.07.21.06.43 0 .21-.07.42-.08.2-.21.37-.13.17-.31.29-.19.12-.39.17-.21.05-.43.04-.21-.02-.41-.1-.2-.08-.37-.23-.16-.14-.27-.33-.1-.18-.15-.39-.04-.22-.01-.43l.02-.21.76-2.59q.76-2.59 2.56-8.69 1.8-6.09 3.98-12.91 2.18-6.82 3.91-11.94 1.72-5.12 4.4-12.31 2.68-7.2 4.28-11.97 1.59-4.77 3.94-9.7 2.35-4.93 3.77-7.56 1.42-2.62 1.53-2.78.11-.16.26-.28.15-.12.32-.21t.36-.13q.19-.04.37-.03.2 0 .38.05.19.05.36.15.17.09.31.22.14.13.24.29.11.16.17.35.07.18.09.37.02.18-.01.37-.03.2-.1.37l-.08.18zM70.263 70.27l.25 2.03q.25 2.04.32 4.43.08 2.39.1 5.14.01 2.75.01 5.08-.01 2.33-.92 5.54-.9 3.21-1.88 5.71-.98 2.5-2.33 4.53-1.35 2.04-2.46 3.52-1.11 1.48-1.93 2.29-.83.81-3.03 1.2-2.2.4-3.33.04-1.14-.36-2.7-1.58-1.57-1.22-2.63-3.16-1.06-1.94-1.54-3.39-.47-1.44-.71-2.7-.23-1.26.53-4.33.76-3.06 2.93-4.1 2.16-1.04 6.12-2.09 3.96-1.05 6.4-1.18 2.43-.13 6.32-.44t7.04-.42q3.14-.11 6.4.11 3.25.21 3.54.28.28.08.53.25.25.16.43.4.18.23.28.51.09.28.1.58 0 .3-.1.58-.09.28-.27.52-.17.23-.42.4-.24.17-.53.25-.28.08-.58.07-.3-.01-.57-.12-.28-.11-.51-.3-.22-.19-.38-.44-.15-.25-.22-.54-.07-.29-.04-.59.03-.29.16-.56.12-.27.32-.49.2-.22.46-.36.27-.14.56-.19.29-.05.58-.01.3.05.56.19.26.13.47.35.21.21.33.48.13.27.16.56.04.3-.02.59-.07.29-.22.54-.15.26-.37.45-.23.2-.5.31-.28.11-.57.13l-.3.02-2.98-.42q-2.99-.41-6.05-.2-3.06.22-6.94.68-3.88.47-6.1.78-2.22.32-4.6.86-2.39.54-3.55 1.12-1.16.58-2.59 1.58-1.43.99-1.36 2.62.08 1.63.3 2.7.23 1.07.83 2.33.6 1.25 1.57 2.08.97.83 2.07 1.52 1.1.68 2.16.26 1.07-.43 2.2-1.72 1.12-1.3 2.32-3.08 1.19-1.79 2.1-4.17.91-2.38 1.73-5.2.81-2.82.76-5.12-.05-2.3-.14-5-.09-2.69-.26-4.93-.17-2.24-.5-4.26-.33-2.02-.34-2.24 0-.2.04-.41.05-.21.15-.41.09-.19.23-.35.14-.17.32-.29.17-.13.37-.21.2-.08.41-.11.22-.03.42-.01.22.02.42.09.2.08.38.19.18.12.33.28.14.16.25.35.1.19.16.39l.05.21zM77.444 45.235l-.92 1.71q-.92 1.72-2.64 4.92-1.72 3.2-1.94 3.47-.22.27-.51.46-.29.19-.63.27-.34.08-.68.05-.35-.02-.67-.16-.31-.14-.57-.37-.26-.23-.43-.53-.17-.31-.24-.65-.06-.34-.01-.68.04-.35.2-.66.15-.31.4-.55.24-.25.55-.4.31-.16.66-.2.34-.05.68.02.34.06.64.23.31.17.54.43.23.26.37.58.13.32.16.66.03.35-.05.69-.09.33-.28.63-.18.29-.45.51-.27.21-.6.33-.33.12-.67.13-.35.01-.68-.09-.33-.1-.61-.31-.29-.2-.49-.48-.2-.28-.3-.62-.1-.33-.09-.67.01-.35.13-.68l.12-.32 1.8-3.04q1.81-3.04 2.63-4.8.82-1.76.96-1.97.14-.21.32-.39.19-.17.41-.29.23-.12.47-.19.25-.07.5-.07.25-.01.5.05.24.06.47.17.23.11.42.28.2.16.35.37.15.21.24.44.09.24.13.49.04.25.01.5t-.11.49l-.09.24z"/></svg>